<svg width="12" height="13" viewBox="0 0 12 13" fill="none" xmlns="http://www.w3.org/2000/svg">
<path d="M5.99987 10.3459L3.09151 12.0954C2.96303 12.177 2.82871 12.212 2.68855 12.2003C2.54839 12.1887 2.42574 12.142 2.32062 12.0604C2.2155 11.9787 2.13374 11.8768 2.07534 11.7546C2.01694 11.6319 2.00526 11.4947 2.0403 11.3431L2.81119 8.03672L0.235717 5.81496C0.118915 5.71 0.0460312 5.59034 0.0170645 5.45598C-0.0123695 5.32209 -0.00372621 5.191 0.0429944 5.06271C0.0897149 4.93442 0.159796 4.82946 0.253237 4.74782C0.346678 4.66618 0.47516 4.6137 0.638682 4.59037L4.0376 4.29297L5.35162 1.17901C5.41002 1.03906 5.50066 0.934097 5.62353 0.86412C5.74594 0.794144 5.87139 0.759155 5.99987 0.759155C6.12835 0.759155 6.25403 0.794144 6.3769 0.86412C6.49931 0.934097 6.58972 1.03906 6.64812 1.17901L7.96213 4.29297L11.3611 4.59037C11.5246 4.6137 11.6531 4.66618 11.7465 4.74782C11.8399 4.82946 11.91 4.93442 11.9567 5.06271C12.0035 5.191 12.0123 5.32209 11.9834 5.45598C11.9539 5.59034 11.8808 5.71 11.764 5.81496L9.18855 8.03672L9.95944 11.3431C9.99448 11.4947 9.9828 11.6319 9.9244 11.7546C9.866 11.8768 9.78423 11.9787 9.67911 12.0604C9.57399 12.142 9.45135 12.1887 9.31119 12.2003C9.17103 12.212 9.0367 12.177 8.90822 12.0954L5.99987 10.3459Z" fill="#FFC700"/>
</svg>
